{"title":"Calender Girls (2015) Desi-pDvD Rip - XviD [1CD] - Team IcTv Exc","uid":12514283,"size":742429930,"categoryP":"video","categoryS":"movies","magnet":"?xt=urn:btih:b0afa234fea623afbf7e61a288bba6e3bbad10c5&amp;dn=Calender+Girls+%282015%29+Desi-pDvD+Rip+-+XviD+%5B1CD%5D+-+Team+IcTv+Exc&amp;tr=udp%3A%2F%2Ftracker.leechers-paradise.org%3A6969&amp;tr=udp%3A%2F%2Fzer0day.ch%3A1337&amp;tr=udp%3A%2F%2Fopen.demonii.com%3A1337&amp;tr=udp%3A%2F%2Ftracker.coppersurfer.tk%3A6969&amp;tr=udp%3A%2F%2Fexodus.desync.com%3A6969","seeders":0,"leechers":3,"uploader":"tykoon123","files":3,"time":1443643366,"description":"http://www.imgpuppy.com/image/Hsog\r\n\r\nInfo:\r\nFormat : AVI \r\nFormat/Info : Audio Video Interleave \r\nFile size : 697 MiB \r\nDuration : 2h 7mn \r\nOverall bit rate : 767 Kbps \r\nWriting library : VirtualDub build 35491/release \r\n\r\nVideo \r\nID : 0 \r\nFormat : MPEG-4 Visual \r\nFormat profile : Advanced    \r\nFormat settings, BVOP : 2 \r\nFormat settings, QPel : No \r\nFormat settings, GMC : No warppoints \r\nFormat settings, Matrix : Default (H.263) \r\nMuxing mode : Packed bitstream \r\nCodec ID : XVID \r\nCodec ID/Hint : XviD \r\nDuration : 2h 7mn \r\nBit rate : 691 Kbps \r\nWidth : 640 pixels \r\nHeight : 272 pixels \r\nDisplay aspect ratio : 2.35:1 \r\nFrame rate : 29.970 fps \r\nColor space : YUV \r\nChroma subsampling : 4:2:0 \r\nBit depth : 8 bits \r\nScan type : Progressive \r\nCompression mode : Lossy \r\nBits/(Pixel*Frame) : 0.132 \r\nStream size : 628 MiB (90%) \r\nWriting library : XviD 73 \r\n\r\nAudio \r\nID : 1 \r\nFormat : MPEG Audio \r\nFormat version : Version 1 \r\nFormat profile : Layer 3 \r\nMode : Joint stereo \r\nMode extension : MS Stereo \r\nCodec ID : 55 \r\nCodec ID/Hint : MP3 \r\nDuration : 2h 7mn \r\nBit rate mode : Constant \r\nBit rate : 64.0 Kbps \r\nChannel(s) : 2 channels \r\nSampling rate : 48.0 KHz \r\nCompression mode : Lossy \r\nStream size : 58.2 MiB (8%) \r\nAlignment : Split accross interleaves \r\nInterleave, duration : 33 ms (1.00 video frame) \r\nInterleave, preload duration : 500 ms \r\nWriting library : LAME3.99r \r\nEncoding settings : -m j -V 4 -q 3 -lowpass 11 -b 64 \r\n\r\nScreens:  \nhttp://www.imgpuppy.com/image/HYHw \nhttp://www.imgpuppy.com/image/I0nQ \nhttp://www.imgpuppy.com/image/I8QT \nhttp://www.imgpuppy.com/image/IffX \nhttp://www.imgpuppy.com/image/Iq3W","torrent":{"xt":"urn:btih:b0afa234fea623afbf7e61a288bba6e3bbad10c5","amp;dn":"Calender+Girls+%282015%29+Desi-pDvD+Rip+-+XviD+%5B1CD%5D+-+Team+IcTv+Exc","amp;tr":["udp%3A%2F%2Ftracker.leechers-paradise.org%3A6969","udp%3A%2F%2Fzer0day.ch%3A1337","udp%3A%2F%2Fopen.demonii.com%3A1337","udp%3A%2F%2Ftracker.coppersurfer.tk%3A6969","udp%3A%2F%2Fexodus.desync.com%3A6969"],"infoHash":"b0afa234fea623afbf7e61a288bba6e3bbad10c5","infoHashBuffer":{"type":"Buffer","data":[176,175,162,52,254,166,35,175,191,126,97,162,136,187,166,227,187,173,16,197]},"announce":[],"urlList":[]}}